<svg xmlns="http://www.w3.org/2000/svg" xmlns:xlink="http://www.w3.org/1999/xlink" width="168.632" height="174.497" viewBox="0 0 168.632 174.497">
  <defs>
    <filter id="Icon_ionic-ios-infinite" x="0" y="0" width="168.632" height="174.497" filterUnits="userSpaceOnUse">
      <feOffset dy="3" input="SourceAlpha"/>
      <feGaussianBlur stdDeviation="3" result="blur"/>
      <feFlood flood-color="#ff4f4f" flood-opacity="0.741" result="color"/>
      <feComposite operator="out" in="SourceGraphic" in2="blur"/>
      <feComposite operator="in" in="color"/>
      <feComposite operator="in" in2="SourceGraphic"/>
    </filter>
  </defs>
  <g data-type="innerShadowGroup">
    <path id="Icon_ionic-ios-infinite-2" data-name="Icon ionic-ios-infinite" d="M152.02,22.646a34.506,34.506,0,0,0-52.241,0l-10.837,11.8a1.716,1.716,0,0,0,0,2.242L95.68,44.2a1.29,1.29,0,0,0,1.945,0l10.768-11.841a23.106,23.106,0,0,1,34.943,0,28.6,28.6,0,0,1,7.19,19.275,28.393,28.393,0,0,1-7.19,19.157,23.106,23.106,0,0,1-34.943,0L64.766,22.646A35.149,35.149,0,0,0,38.645,10.688,34.927,34.927,0,0,0,12.525,22.646,42.894,42.894,0,0,0,1.688,51.6,42.967,42.967,0,0,0,12.525,80.55,34.983,34.983,0,0,0,38.645,92.509,34.927,34.927,0,0,0,64.766,80.55l10.768-11.8a1.716,1.716,0,0,0,0-2.242L68.8,59.072a1.29,1.29,0,0,0-1.945,0L56.082,70.834a23.106,23.106,0,0,1-34.943,0,28.6,28.6,0,0,1-7.19-19.275A28.466,28.466,0,0,1,21.139,32.4a23.106,23.106,0,0,1,34.943,0L99.674,80.59a34.506,34.506,0,0,0,52.241,0,42.755,42.755,0,0,0,10.872-28.952A42.6,42.6,0,0,0,152.02,22.646Z" transform="translate(-9.072 113.824) rotate(-48)" fill="#fff1f1"/>
    <g transform="matrix(1, 0, 0, 1, 0, 0)" filter="url(#Icon_ionic-ios-infinite)">
      <path id="Icon_ionic-ios-infinite-3" data-name="Icon ionic-ios-infinite" d="M152.02,22.646a34.506,34.506,0,0,0-52.241,0l-10.837,11.8a1.716,1.716,0,0,0,0,2.242L95.68,44.2a1.29,1.29,0,0,0,1.945,0l10.768-11.841a23.106,23.106,0,0,1,34.943,0,28.6,28.6,0,0,1,7.19,19.275,28.393,28.393,0,0,1-7.19,19.157,23.106,23.106,0,0,1-34.943,0L64.766,22.646A35.149,35.149,0,0,0,38.645,10.688,34.927,34.927,0,0,0,12.525,22.646,42.894,42.894,0,0,0,1.688,51.6,42.967,42.967,0,0,0,12.525,80.55,34.983,34.983,0,0,0,38.645,92.509,34.927,34.927,0,0,0,64.766,80.55l10.768-11.8a1.716,1.716,0,0,0,0-2.242L68.8,59.072a1.29,1.29,0,0,0-1.945,0L56.082,70.834a23.106,23.106,0,0,1-34.943,0,28.6,28.6,0,0,1-7.19-19.275A28.466,28.466,0,0,1,21.139,32.4a23.106,23.106,0,0,1,34.943,0L99.674,80.59a34.506,34.506,0,0,0,52.241,0,42.755,42.755,0,0,0,10.872-28.952A42.6,42.6,0,0,0,152.02,22.646Z" transform="translate(-9.07 113.82) rotate(-48)" fill="#fff"/>
    </g>
  </g>
</svg>
